<?xml version="1.0" encoding="utf-8" standalone="no"?>
<!DOCTYPE svg PUBLIC "-//W3C//DTD SVG 1.1//EN"
  "http://www.w3.org/Graphics/SVG/1.1/DTD/svg11.dtd">
<!-- Created with matplotlib (https://matplotlib.org/) -->
<svg height="286.2pt" version="1.1" viewBox="0 0 293.4 286.2" width="293.4pt" xmlns="http://www.w3.org/2000/svg" xmlns:xlink="http://www.w3.org/1999/xlink">
 <defs>
  <style type="text/css">
*{stroke-linecap:butt;stroke-linejoin:round;}
  </style>
 </defs>
 <g id="figure_1">
  <g id="patch_1">
   <path d="M 0 286.2 
L 293.4 286.2 
L 293.4 0 
L 0 0 
z
" style="fill:none;"/>
  </g>
  <g id="axes_1">
   <g id="patch_2">
    <path d="M 7.2 130.745455 
L 134.018182 130.745455 
L 134.018182 7.2 
L 7.2 7.2 
z
" style="fill:none;"/>
   </g>
   <g id="line2d_1">
    <path clip-path="url(#p3e3bb666ec)" d="M 8.692228 110.154545 
L 9.687876 27.790909 
L 10.559068 68.972727 
L 11.181348 68.972727 
L 12.176996 110.154545 
L 20.640004 110.154545 
L 23.004668 27.790909 
L 23.502492 68.972727 
L 28.854101 68.972727 
L 30.098661 27.790909 
L 30.347573 27.790909 
L 35.076901 110.154545 
L 35.823637 68.972727 
L 37.814933 27.790909 
L 43.166541 68.972727 
L 44.784469 110.154545 
L 44.908926 110.154545 
L 50.011622 68.972727 
L 55.36323 110.154545 
L 58.350174 110.154545 
L 59.221366 68.972727 
L 70.795775 110.154545 
L 80.752255 27.790909 
L 87.846248 110.154545 
L 88.344072 110.154545 
L 91.331016 110.154545 
L 96.309256 27.790909 
L 100.540761 110.154545 
L 107.385841 27.790909 
L 107.883665 27.790909 
L 110.123873 68.972727 
L 112.364081 110.154545 
L 112.986361 27.790909 
L 116.844497 27.790909 
L 120.82709 27.790909 
L 121.698282 68.972727 
L 123.814034 68.972727 
L 132.152586 27.790909 
L 132.525954 110.154545 
" style="fill:none;"/>
    <defs>
     <path d="M 0 10 
L 0 -10 
" id="mc64afea16e" style="stroke:#1e90ff;stroke-width:0.7;"/>
    </defs>
    <g clip-path="url(#p3e3bb666ec)">
     <use style="fill:#1e90ff;stroke:#1e90ff;stroke-width:0.7;" x="8.692228" xlink:href="#mc64afea16e" y="110.154545"/>
     <use style="fill:#1e90ff;stroke:#1e90ff;stroke-width:0.7;" x="9.687876" xlink:href="#mc64afea16e" y="27.790909"/>
     <use style="fill:#1e90ff;stroke:#1e90ff;stroke-width:0.7;" x="10.559068" xlink:href="#mc64afea16e" y="68.972727"/>
     <use style="fill:#1e90ff;stroke:#1e90ff;stroke-width:0.7;" x="11.181348" xlink:href="#mc64afea16e" y="68.972727"/>
     <use style="fill:#1e90ff;stroke:#1e90ff;stroke-width:0.7;" x="12.176996" xlink:href="#mc64afea16e" y="110.154545"/>
     <use style="fill:#1e90ff;stroke:#1e90ff;stroke-width:0.7;" x="20.640004" xlink:href="#mc64afea16e" y="110.154545"/>
     <use style="fill:#1e90ff;stroke:#1e90ff;stroke-width:0.7;" x="23.004668" xlink:href="#mc64afea16e" y="27.790909"/>
     <use style="fill:#1e90ff;stroke:#1e90ff;stroke-width:0.7;" x="23.502492" xlink:href="#mc64afea16e" y="68.972727"/>
     <use style="fill:#1e90ff;stroke:#1e90ff;stroke-width:0.7;" x="28.854101" xlink:href="#mc64afea16e" y="68.972727"/>
     <use style="fill:#1e90ff;stroke:#1e90ff;stroke-width:0.7;" x="30.098661" xlink:href="#mc64afea16e" y="27.790909"/>
     <use style="fill:#1e90ff;stroke:#1e90ff;stroke-width:0.7;" x="30.347573" xlink:href="#mc64afea16e" y="27.790909"/>
     <use style="fill:#1e90ff;stroke:#1e90ff;stroke-width:0.7;" x="35.076901" xlink:href="#mc64afea16e" y="110.154545"/>
     <use style="fill:#1e90ff;stroke:#1e90ff;stroke-width:0.7;" x="35.823637" xlink:href="#mc64afea16e" y="68.972727"/>
     <use style="fill:#1e90ff;stroke:#1e90ff;stroke-width:0.7;" x="37.814933" xlink:href="#mc64afea16e" y="27.790909"/>
     <use style="fill:#1e90ff;stroke:#1e90ff;stroke-width:0.7;" x="43.166541" xlink:href="#mc64afea16e" y="68.972727"/>
     <use style="fill:#1e90ff;stroke:#1e90ff;stroke-width:0.7;" x="44.784469" xlink:href="#mc64afea16e" y="110.154545"/>
     <use style="fill:#1e90ff;stroke:#1e90ff;stroke-width:0.7;" x="44.908926" xlink:href="#mc64afea16e" y="110.154545"/>
     <use style="fill:#1e90ff;stroke:#1e90ff;stroke-width:0.7;" x="50.011622" xlink:href="#mc64afea16e" y="68.972727"/>
     <use style="fill:#1e90ff;stroke:#1e90ff;stroke-width:0.7;" x="55.36323" xlink:href="#mc64afea16e" y="110.154545"/>
     <use style="fill:#1e90ff;stroke:#1e90ff;stroke-width:0.7;" x="58.350174" xlink:href="#mc64afea16e" y="110.154545"/>
     <use style="fill:#1e90ff;stroke:#1e90ff;stroke-width:0.7;" x="59.221366" xlink:href="#mc64afea16e" y="68.972727"/>
     <use style="fill:#1e90ff;stroke:#1e90ff;stroke-width:0.7;" x="70.795775" xlink:href="#mc64afea16e" y="110.154545"/>
     <use style="fill:#1e90ff;stroke:#1e90ff;stroke-width:0.7;" x="80.752255" xlink:href="#mc64afea16e" y="27.790909"/>
     <use style="fill:#1e90ff;stroke:#1e90ff;stroke-width:0.7;" x="87.846248" xlink:href="#mc64afea16e" y="110.154545"/>
     <use style="fill:#1e90ff;stroke:#1e90ff;stroke-width:0.7;" x="88.344072" xlink:href="#mc64afea16e" y="110.154545"/>
     <use style="fill:#1e90ff;stroke:#1e90ff;stroke-width:0.7;" x="91.331016" xlink:href="#mc64afea16e" y="110.154545"/>
     <use style="fill:#1e90ff;stroke:#1e90ff;stroke-width:0.7;" x="96.309256" xlink:href="#mc64afea16e" y="27.790909"/>
     <use style="fill:#1e90ff;stroke:#1e90ff;stroke-width:0.7;" x="100.540761" xlink:href="#mc64afea16e" y="110.154545"/>
     <use style="fill:#1e90ff;stroke:#1e90ff;stroke-width:0.7;" x="107.385841" xlink:href="#mc64afea16e" y="27.790909"/>
     <use style="fill:#1e90ff;stroke:#1e90ff;stroke-width:0.7;" x="107.883665" xlink:href="#mc64afea16e" y="27.790909"/>
     <use style="fill:#1e90ff;stroke:#1e90ff;stroke-width:0.7;" x="110.123873" xlink:href="#mc64afea16e" y="68.972727"/>
     <use style="fill:#1e90ff;stroke:#1e90ff;stroke-width:0.7;" x="112.364081" xlink:href="#mc64afea16e" y="110.154545"/>
     <use style="fill:#1e90ff;stroke:#1e90ff;stroke-width:0.7;" x="112.986361" xlink:href="#mc64afea16e" y="27.790909"/>
     <use style="fill:#1e90ff;stroke:#1e90ff;stroke-width:0.7;" x="116.844497" xlink:href="#mc64afea16e" y="27.790909"/>
     <use style="fill:#1e90ff;stroke:#1e90ff;stroke-width:0.7;" x="120.82709" xlink:href="#mc64afea16e" y="27.790909"/>
     <use style="fill:#1e90ff;stroke:#1e90ff;stroke-width:0.7;" x="121.698282" xlink:href="#mc64afea16e" y="68.972727"/>
     <use style="fill:#1e90ff;stroke:#1e90ff;stroke-width:0.7;" x="123.814034" xlink:href="#mc64afea16e" y="68.972727"/>
     <use style="fill:#1e90ff;stroke:#1e90ff;stroke-width:0.7;" x="132.152586" xlink:href="#mc64afea16e" y="27.790909"/>
     <use style="fill:#1e90ff;stroke:#1e90ff;stroke-width:0.7;" x="132.525954" xlink:href="#mc64afea16e" y="110.154545"/>
    </g>
   </g>
  </g>
  <g id="axes_2">
   <g id="patch_3">
    <path d="M 159.381818 130.745455 
L 286.2 130.745455 
L 286.2 7.2 
L 159.381818 7.2 
z
" style="fill:none;"/>
   </g>
   <g id="line2d_2">
    <path clip-path="url(#pa923362725)" d="M 161.37187 68.972727 
L 161.496326 68.972727 
L 163.86099 27.790909 
L 166.723478 110.154545 
L 170.830526 27.790909 
L 174.43975 110.154545 
L 178.546799 68.972727 
L 184.645143 27.790909 
L 188.378823 68.972727 
L 192.859239 27.790909 
L 198.45976 68.972727 
L 201.197792 110.154545 
L 211.154272 110.154545 
L 212.149921 110.154545 
L 214.514585 110.154545 
L 217.750441 68.972727 
L 219.866193 27.790909 
L 221.981945 110.154545 
L 223.102049 110.154545 
L 223.350961 68.972727 
L 228.080289 27.790909 
L 239.90361 68.972727 
L 240.899258 27.790909 
L 244.135114 110.154545 
L 251.726931 68.972727 
L 251.975843 27.790909 
L 253.842683 110.154545 
L 258.572011 68.972727 
L 259.941027 110.154545 
L 264.794811 68.972727 
L 272.137716 27.790909 
L 272.386628 27.790909 
L 272.884452 110.154545 
L 273.506732 110.154545 
L 284.707772 110.154545 
" style="fill:none;"/>
    <defs>
     <path d="M 0 10 
L 0 -10 
" id="mf2b7fee13c" style="stroke:#d62728;stroke-width:0.7;"/>
    </defs>
    <g clip-path="url(#pa923362725)">
     <use style="fill:#d62728;stroke:#d62728;stroke-width:0.7;" x="161.37187" xlink:href="#mf2b7fee13c" y="68.972727"/>
     <use style="fill:#d62728;stroke:#d62728;stroke-width:0.7;" x="161.496326" xlink:href="#mf2b7fee13c" y="68.972727"/>
     <use style="fill:#d62728;stroke:#d62728;stroke-width:0.7;" x="163.86099" xlink:href="#mf2b7fee13c" y="27.790909"/>
     <use style="fill:#d62728;stroke:#d62728;stroke-width:0.7;" x="166.723478" xlink:href="#mf2b7fee13c" y="110.154545"/>
     <use style="fill:#d62728;stroke:#d62728;stroke-width:0.7;" x="170.830526" xlink:href="#mf2b7fee13c" y="27.790909"/>
     <use style="fill:#d62728;stroke:#d62728;stroke-width:0.7;" x="174.43975" xlink:href="#mf2b7fee13c" y="110.154545"/>
     <use style="fill:#d62728;stroke:#d62728;stroke-width:0.7;" x="178.546799" xlink:href="#mf2b7fee13c" y="68.972727"/>
     <use style="fill:#d62728;stroke:#d62728;stroke-width:0.7;" x="184.645143" xlink:href="#mf2b7fee13c" y="27.790909"/>
     <use style="fill:#d62728;stroke:#d62728;stroke-width:0.7;" x="188.378823" xlink:href="#mf2b7fee13c" y="68.972727"/>
     <use style="fill:#d62728;stroke:#d62728;stroke-width:0.7;" x="192.859239" xlink:href="#mf2b7fee13c" y="27.790909"/>
     <use style="fill:#d62728;stroke:#d62728;stroke-width:0.7;" x="198.45976" xlink:href="#mf2b7fee13c" y="68.972727"/>
     <use style="fill:#d62728;stroke:#d62728;stroke-width:0.7;" x="201.197792" xlink:href="#mf2b7fee13c" y="110.154545"/>
     <use style="fill:#d62728;stroke:#d62728;stroke-width:0.7;" x="211.154272" xlink:href="#mf2b7fee13c" y="110.154545"/>
     <use style="fill:#d62728;stroke:#d62728;stroke-width:0.7;" x="212.149921" xlink:href="#mf2b7fee13c" y="110.154545"/>
     <use style="fill:#d62728;stroke:#d62728;stroke-width:0.7;" x="214.514585" xlink:href="#mf2b7fee13c" y="110.154545"/>
     <use style="fill:#d62728;stroke:#d62728;stroke-width:0.7;" x="217.750441" xlink:href="#mf2b7fee13c" y="68.972727"/>
     <use style="fill:#d62728;stroke:#d62728;stroke-width:0.7;" x="219.866193" xlink:href="#mf2b7fee13c" y="27.790909"/>
     <use style="fill:#d62728;stroke:#d62728;stroke-width:0.7;" x="221.981945" xlink:href="#mf2b7fee13c" y="110.154545"/>
     <use style="fill:#d62728;stroke:#d62728;stroke-width:0.7;" x="223.102049" xlink:href="#mf2b7fee13c" y="110.154545"/>
     <use style="fill:#d62728;stroke:#d62728;stroke-width:0.7;" x="223.350961" xlink:href="#mf2b7fee13c" y="68.972727"/>
     <use style="fill:#d62728;stroke:#d62728;stroke-width:0.7;" x="228.080289" xlink:href="#mf2b7fee13c" y="27.790909"/>
     <use style="fill:#d62728;stroke:#d62728;stroke-width:0.7;" x="239.90361" xlink:href="#mf2b7fee13c" y="68.972727"/>
     <use style="fill:#d62728;stroke:#d62728;stroke-width:0.7;" x="240.899258" xlink:href="#mf2b7fee13c" y="27.790909"/>
     <use style="fill:#d62728;stroke:#d62728;stroke-width:0.7;" x="244.135114" xlink:href="#mf2b7fee13c" y="110.154545"/>
     <use style="fill:#d62728;stroke:#d62728;stroke-width:0.7;" x="251.726931" xlink:href="#mf2b7fee13c" y="68.972727"/>
     <use style="fill:#d62728;stroke:#d62728;stroke-width:0.7;" x="251.975843" xlink:href="#mf2b7fee13c" y="27.790909"/>
     <use style="fill:#d62728;stroke:#d62728;stroke-width:0.7;" x="253.842683" xlink:href="#mf2b7fee13c" y="110.154545"/>
     <use style="fill:#d62728;stroke:#d62728;stroke-width:0.7;" x="258.572011" xlink:href="#mf2b7fee13c" y="68.972727"/>
     <use style="fill:#d62728;stroke:#d62728;stroke-width:0.7;" x="259.941027" xlink:href="#mf2b7fee13c" y="110.154545"/>
     <use style="fill:#d62728;stroke:#d62728;stroke-width:0.7;" x="264.794811" xlink:href="#mf2b7fee13c" y="68.972727"/>
     <use style="fill:#d62728;stroke:#d62728;stroke-width:0.7;" x="272.137716" xlink:href="#mf2b7fee13c" y="27.790909"/>
     <use style="fill:#d62728;stroke:#d62728;stroke-width:0.7;" x="272.386628" xlink:href="#mf2b7fee13c" y="27.790909"/>
     <use style="fill:#d62728;stroke:#d62728;stroke-width:0.7;" x="272.884452" xlink:href="#mf2b7fee13c" y="110.154545"/>
     <use style="fill:#d62728;stroke:#d62728;stroke-width:0.7;" x="273.506732" xlink:href="#mf2b7fee13c" y="110.154545"/>
     <use style="fill:#d62728;stroke:#d62728;stroke-width:0.7;" x="284.707772" xlink:href="#mf2b7fee13c" y="110.154545"/>
    </g>
   </g>
  </g>
  <g id="axes_3">
   <g id="patch_4">
    <path d="M 7.2 279 
L 134.018182 279 
L 134.018182 155.454545 
L 7.2 155.454545 
z
" style="fill:none;"/>
   </g>
   <g id="line2d_3">
    <path clip-path="url(#p8092ac86a1)" d="M 12.964463 238.640964 
L 13.310677 238.640964 
L 13.772295 248.418271 
L 14.233914 253.277021 
L 14.695533 255.834458 
L 15.157151 257.183596 
L 15.61877 257.843606 
L 16.080389 258.087146 
L 16.542007 258.069031 
L 17.003626 262.809302 
L 17.465245 265.073274 
L 17.926863 266.176952 
L 18.388482 266.66416 
L 18.850101 266.791926 
L 19.311719 266.695406 
L 20.004147 266.290793 
L 21.042789 265.355994 
L 22.773859 263.417964 
L 24.389524 261.472245 
L 24.851143 265.075363 
L 25.312762 266.796481 
L 25.77438 267.61293 
L 26.235999 267.938171 
L 26.697617 267.971375 
L 27.274641 267.759757 
L 28.082473 267.181347 
L 29.23652 266.04971 
L 31.313804 263.641895 
L 37.776465 255.976492 
L 38.238084 261.006814 
L 38.699702 263.448594 
L 39.161321 264.658027 
L 39.622939 265.206705 
L 40.084558 265.368839 
L 40.546177 265.2902 
L 41.238605 264.8954 
L 42.161842 264.076846 
L 43.777507 262.293237 
L 46.778028 258.726453 
L 47.008838 262.602795 
L 47.355052 267.160845 
L 47.701266 269.463248 
L 48.162884 270.989199 
L 48.624503 271.681552 
L 49.086122 271.954065 
L 49.54774 271.986713 
L 50.240168 271.768484 
L 51.163406 271.183855 
L 52.432857 270.073131 
L 54.279331 268.118918 
L 56.587425 265.396843 
L 57.049043 268.007882 
L 57.510662 269.232535 
L 57.972281 269.783528 
L 58.433899 269.963549 
L 59.010922 269.882844 
L 59.357136 269.728456 
L 59.818755 271.45171 
L 60.280374 272.227225 
L 60.741992 272.547425 
L 61.203611 272.615924 
L 61.780634 272.489769 
L 62.588467 272.072461 
L 63.742514 271.188411 
L 65.358179 269.625854 
L 67.666272 267.036757 
L 70.897603 263.102449 
L 71.359221 266.286769 
L 71.82084 267.79807 
L 72.282458 268.501712 
L 72.744077 268.764458 
L 73.205696 268.763302 
L 73.782719 268.531074 
L 74.590552 267.945283 
L 75.860003 266.695837 
L 77.937287 264.286231 
L 85.092376 255.785461 
L 86.708041 254.071474 
L 87.515874 265.001942 
L 87.862088 267.755018 
L 88.323706 269.601108 
L 88.785325 270.45623 
L 89.246944 270.811672 
L 89.708562 270.883023 
L 89.939372 270.847893 
L 90.285586 272.104527 
L 90.747204 272.936108 
L 91.208823 273.287777 
L 91.670442 273.384298 
L 92.247465 273.295554 
L 93.055297 272.935861 
L 94.209344 272.137585 
L 95.709605 270.798809 
L 97.671484 268.735078 
L 98.479317 267.816182 
L 98.940935 269.836164 
L 99.402554 270.767332 
L 99.864172 271.164623 
L 100.325791 271.264292 
L 100.902814 271.139322 
L 101.710647 270.686104 
L 102.864694 269.720727 
L 104.480359 268.041114 
L 107.134666 264.912421 
L 109.442759 262.070202 
L 109.904378 265.516628 
L 110.365997 267.159412 
L 110.827615 267.933694 
L 111.289234 268.235447 
L 111.750853 268.255576 
L 112.327876 268.035869 
L 113.135708 267.454067 
L 114.289755 266.323817 
L 116.367039 263.919711 
L 123.175914 255.842678 
L 125.945626 252.967524 
L 128.138314 250.936236 
L 128.253719 253.007558 
L 128.253719 253.007558 
" style="fill:none;stroke:#1e90ff;stroke-linecap:square;"/>
   </g>
   <g id="line2d_4">
    <path clip-path="url(#p8092ac86a1)" d="M 12.964463 199.855606 
L 15.041747 199.855606 
L 15.503365 209.632913 
L 15.61877 211.164108 
L 15.964984 219.446381 
L 16.311198 223.729552 
L 16.772817 226.657748 
L 17.234435 228.072325 
L 17.696054 228.728463 
L 18.157673 228.96008 
L 18.619291 228.933772 
L 19.196314 228.673836 
L 20.004147 228.054125 
L 21.273598 226.763637 
L 23.697096 223.901096 
L 27.043831 219.855337 
L 27.50545 224.186187 
L 27.967069 226.274314 
L 28.428687 227.290079 
L 28.890306 227.727679 
L 29.351925 227.82468 
L 29.928948 227.654339 
L 30.621376 227.192259 
L 31.660018 226.21191 
L 32.006232 225.840725 
L 32.46785 228.681523 
L 32.929469 230.017568 
L 33.391088 230.627307 
L 33.852706 230.839564 
L 34.314325 230.812657 
L 35.006753 230.498945 
L 35.92999 229.782383 
L 37.314846 228.37788 
L 38.468893 227.057248 
L 38.930512 229.566848 
L 39.39213 230.740301 
L 39.853749 231.264245 
L 40.315367 231.430079 
L 40.892391 231.341569 
L 41.584819 230.975237 
L 42.623461 230.123863 
L 44.123721 228.563809 
L 45.277768 227.230681 
L 45.739386 229.694825 
L 46.201005 230.845874 
L 46.662624 231.358028 
L 47.124242 231.517559 
L 47.701266 231.425327 
L 48.393694 231.05774 
L 49.432336 230.207391 
L 50.932596 228.650476 
L 51.625024 227.860987 
L 52.086643 230.173475 
L 52.548261 231.248955 
L 53.00988 231.72145 
L 53.471499 231.860223 
L 54.048522 231.75654 
L 54.74095 231.38647 
L 55.779592 230.542523 
L 57.279853 229.000153 
L 59.818755 226.015263 
L 60.164969 225.591938 
L 60.626588 228.45736 
L 61.088206 229.808916 
L 61.549825 230.427222 
L 62.011444 230.643446 
L 62.473062 230.617578 
L 63.050086 230.371838 
L 63.857918 229.78386 
L 65.12737 228.545434 
L 67.204653 226.153632 
L 75.28298 216.572794 
L 78.052692 213.751196 
L 80.591594 211.472509 
L 83.130497 209.493814 
L 85.669399 207.802131 
L 88.208302 206.373777 
L 90.862609 205.130592 
L 93.747725 204.029269 
L 96.863651 203.084173 
L 100.325791 202.274135 
L 104.24955 201.592943 
L 107.365475 201.189015 
L 107.827094 210.591736 
L 108.288713 215.259091 
L 108.750331 217.708767 
L 109.21195 218.992796 
L 109.673569 219.61119 
L 110.135187 219.826735 
L 110.596806 219.78878 
L 111.173829 219.518737 
L 112.097066 218.800013 
L 113.828136 217.087245 
L 117.751895 213.174229 
L 118.098109 212.856364 
L 118.559727 219.045663 
L 119.021346 222.075241 
L 119.482965 223.609222 
L 119.944583 224.34703 
L 120.059988 224.450617 
L 120.406202 227.499227 
L 120.867821 229.569734 
L 121.329439 230.544056 
L 121.791058 230.961468 
L 122.252677 231.061812 
L 122.8297 230.919139 
L 123.637533 230.422299 
L 124.791579 229.383257 
L 126.522649 227.479051 
L 128.253719 225.401367 
L 128.253719 225.401367 
" style="fill:none;stroke:#1e90ff;stroke-linecap:square;"/>
   </g>
   <g id="line2d_5">
    <path clip-path="url(#p8092ac86a1)" d="M 12.964463 161.070248 
L 14.233914 161.070248 
L 14.695533 170.847555 
L 15.157151 175.706305 
L 15.61877 178.263742 
L 16.080389 179.61288 
L 16.542007 180.27289 
L 17.003626 180.51643 
L 17.465245 180.498315 
L 18.042268 180.246339 
L 18.965505 179.548615 
L 20.696575 177.866842 
L 24.620334 174.024057 
L 26.582213 172.331648 
L 27.043831 178.991515 
L 27.50545 182.260359 
L 27.967069 183.927231 
L 28.428687 184.743328 
L 28.890306 185.067566 
L 29.351925 185.089788 
L 29.928948 184.854215 
L 30.736781 184.238265 
L 32.006232 182.948146 
L 33.160278 181.6472 
L 34.083516 191.756983 
L 34.545134 193.414209 
L 35.006753 194.166791 
L 35.468372 194.472323 
L 35.92999 194.526025 
L 36.507014 194.378908 
L 37.314846 193.92874 
L 38.468893 192.996191 
L 40.084558 191.372964 
L 40.315367 191.121549 
L 40.776986 192.939142 
L 41.238605 193.770023 
L 41.700223 194.115718 
L 42.161842 194.189666 
L 42.738865 194.052585 
L 43.546698 193.601744 
L 44.700745 192.655785 
L 46.31641 191.008764 
L 48.855312 188.055586 
L 57.279853 178.003359 
L 60.049564 175.157578 
L 62.588467 172.855239 
L 65.12737 170.853262 
L 67.666272 169.139789 
L 70.205175 167.691754 
L 72.859482 166.430529 
L 75.744598 165.312541 
L 78.860524 164.352649 
L 80.129975 164.024119 
L 80.591594 172.973423 
L 81.053213 177.40921 
L 81.514831 179.72868 
L 81.97645 180.93423 
L 82.438069 181.502645 
L 82.899687 181.68474 
L 83.361306 181.623226 
L 84.053734 181.253732 
L 85.092376 180.372033 
L 87.285064 178.107773 
L 90.6318 174.733605 
L 93.170702 172.486015 
L 94.555558 171.385744 
L 95.017177 178.302944 
L 95.478795 181.702729 
L 95.940414 183.442479 
L 96.402033 184.301681 
L 96.863651 184.652559 
L 97.32527 184.691859 
L 97.902293 184.469895 
L 98.710126 183.865527 
L 99.979577 182.587092 
L 104.826573 177.196802 
L 105.634405 187.777539 
L 105.980619 190.446163 
L 106.442238 192.23418 
L 106.903857 193.060071 
L 107.365475 193.400237 
L 107.827094 193.463791 
L 108.404117 193.307646 
L 109.21195 192.823451 
L 110.019783 192.152381 
L 110.481401 193.766455 
L 110.94302 194.495355 
L 111.404639 194.789967 
L 111.866257 194.840843 
L 112.558685 194.64871 
L 113.481922 194.098584 
L 113.597327 194.01379 
L 114.058946 195.212655 
L 114.520564 195.739694 
L 114.982183 195.934953 
L 115.559206 195.922608 
L 116.367039 195.631417 
L 117.290276 195.066594 
L 117.751895 196.015562 
L 118.213514 196.423586 
L 118.675132 196.561458 
L 119.36756 196.49424 
L 120.175393 196.176829 
L 121.329439 195.459249 
L 122.8297 194.231125 
L 124.676175 192.414297 
L 127.099672 189.694378 
L 127.7921 188.870941 
L 128.253719 191.223722 
L 128.253719 191.223722 
" style="fill:none;stroke:#1e90ff;stroke-linecap:square;"/>
   </g>
  </g>
  <g id="axes_4">
   <g id="patch_5">
    <path d="M 159.381818 279 
L 286.2 279 
L 286.2 155.454545 
L 159.381818 155.454545 
z
" style="fill:none;"/>
   </g>
   <g id="line2d_6">
    <path clip-path="url(#p3759dd0c08)" d="M 165.146281 237.795726 
L 170.916514 237.795726 
L 171.378133 247.466496 
L 171.839751 252.272304 
L 172.30137 254.801874 
L 172.762989 256.136311 
L 173.224607 256.789129 
L 173.686226 257.030015 
L 174.147845 257.012098 
L 174.724868 256.762868 
L 175.648105 256.072746 
L 177.379175 254.409298 
L 178.071603 253.711136 
L 178.533222 259.023411 
L 178.99484 261.607958 
L 179.456459 262.897062 
L 179.918078 263.493455 
L 180.379696 263.685866 
L 180.841315 263.62755 
L 181.418338 263.332986 
L 182.341575 262.565542 
L 183.841836 260.962532 
L 191.11233 252.815589 
L 193.766637 250.307243 
L 196.305539 248.211502 
L 198.844442 246.407363 
L 201.383345 244.875618 
L 202.883605 244.087841 
L 203.345224 252.003366 
L 203.806842 255.913087 
L 204.268461 257.939337 
L 204.73008 258.970987 
L 205.191698 259.431557 
L 205.653317 259.544304 
L 206.23034 259.385007 
L 206.922768 258.933604 
L 208.076815 257.86875 
L 211.308145 254.410481 
L 212.115978 253.566426 
L 212.577597 258.908807 
L 213.962453 268.22069 
L 214.424071 269.170239 
L 214.88569 269.577475 
L 215.231904 269.676086 
L 215.578118 270.99181 
L 216.039736 271.856806 
L 216.501355 272.225936 
L 216.962974 272.335807 
L 217.539997 272.262931 
L 218.34783 271.926373 
L 219.501876 271.162843 
L 221.002137 269.869164 
L 222.156183 268.721045 
L 222.617802 270.231538 
L 223.079421 270.912601 
L 223.194825 271.009306 
L 223.541039 272.203713 
L 224.002658 272.965103 
L 224.464277 273.285089 
L 225.0413 273.384298 
L 225.733728 273.267382 
L 226.656965 272.882851 
L 227.926416 272.089634 
L 229.542082 270.78243 
L 231.503961 268.876738 
L 233.927459 266.19026 
L 237.966622 261.318833 
L 242.467404 255.991911 
L 242.698213 255.733479 
L 243.159832 260.500104 
L 243.62145 262.809572 
L 244.083069 263.947799 
L 244.544688 264.457053 
L 245.006306 264.597637 
L 245.467925 264.508032 
L 246.160353 264.108073 
L 247.198995 263.177242 
L 248.930065 261.255911 
L 251.699777 257.981696 
L 252.161395 262.161452 
L 252.623014 264.174249 
L 253.084633 265.150248 
L 253.546251 265.566765 
L 254.00787 265.653305 
L 254.584893 265.478537 
L 255.392726 264.923536 
L 256.546772 263.804263 
L 257.354605 262.907607 
L 257.816224 265.848501 
L 258.277842 267.236872 
L 258.739461 267.875683 
L 259.20108 268.104652 
L 259.662698 268.087529 
L 260.239722 267.849821 
L 261.047554 267.270663 
L 262.317005 266.044733 
L 264.394289 263.675656 
L 269.35669 257.704143 
L 269.818308 261.9546 
L 269.933713 262.609923 
L 270.279927 266.497129 
L 270.626141 268.501676 
L 271.08776 269.845058 
L 271.549378 270.451112 
L 272.010997 270.676909 
L 272.58802 270.658491 
L 273.280448 270.377542 
L 274.203686 269.746371 
L 275.588541 268.489289 
L 277.550421 266.372177 
L 280.320133 263.080223 
L 280.435537 264.019405 
L 280.435537 264.019405 
" style="fill:none;stroke:#d62728;stroke-linecap:square;"/>
   </g>
   <g id="line2d_7">
    <path clip-path="url(#p3759dd0c08)" d="M 165.146281 199.432987 
L 165.954114 199.432987 
L 166.300328 211.850402 
L 166.646542 219.449296 
L 166.992756 223.414297 
L 167.454374 226.140009 
L 167.915993 227.457399 
L 168.377611 228.062325 
L 168.83923 228.265571 
L 169.300849 228.223435 
L 169.877872 227.953824 
L 170.801109 227.226381 
L 172.185965 225.791706 
L 174.955677 222.51595 
L 179.571864 217.109734 
L 181.879957 214.659415 
L 182.341575 220.145274 
L 182.803194 222.819056 
L 183.264813 224.15775 
L 183.726431 224.783062 
L 184.18805 224.992833 
L 184.649669 224.945124 
L 185.226692 224.658362 
L 186.149929 223.897217 
L 187.65019 222.299753 
L 190.996925 218.418279 
L 191.458544 222.911341 
L 191.920162 225.082326 
L 192.381781 226.144666 
L 192.8434 226.610387 
L 193.305018 226.72545 
L 193.882042 226.569982 
L 194.57447 226.120065 
L 195.613111 225.15369 
L 197.459586 223.075205 
L 200.344703 219.648103 
L 200.806321 223.819847 
L 201.26794 225.828648 
L 201.729558 226.802482 
L 202.191177 227.21777 
L 202.652796 227.303599 
L 203.229819 227.128348 
L 204.037652 226.573066 
L 205.191698 225.453703 
L 207.268982 223.067342 
L 212.923811 216.487085 
L 215.693522 213.63914 
L 218.232425 211.328775 
L 218.694044 217.710552 
L 219.155662 220.839285 
L 219.617281 222.429923 
L 220.0789 223.202869 
L 220.540518 223.502489 
L 221.002137 223.511036 
L 221.57916 223.267428 
L 222.386993 222.649316 
L 223.425635 221.61394 
L 223.887253 225.316858 
L 224.348872 227.085472 
L 224.810491 227.928058 
L 225.272109 228.269535 
L 225.733728 228.313959 
L 226.310751 228.112744 
L 227.118584 227.545767 
L 228.27263 226.428437 
L 230.349914 224.046945 
L 236.812575 216.478279 
L 238.774455 214.427526 
L 239.236073 219.975335 
L 239.697692 222.680539 
L 240.159311 224.036582 
L 240.620929 224.672001 
L 241.082548 224.887864 
L 241.544166 224.843912 
L 242.12119 224.559956 
L 243.044427 223.801141 
L 244.544688 222.205732 
L 249.737897 216.281633 
L 250.199516 221.336344 
L 250.661135 223.791583 
L 251.122753 225.009852 
L 251.584372 225.565271 
L 252.045991 225.733198 
L 252.507609 225.659971 
L 253.200037 225.273182 
L 254.123275 224.465744 
L 255.73894 222.703486 
L 256.085154 222.301222 
L 256.546772 225.802078 
L 257.008391 227.471797 
L 257.47001 228.261545 
L 257.931628 228.573401 
L 258.393247 228.600947 
L 258.97027 228.388656 
L 259.778103 227.815847 
L 260.93215 226.698093 
L 261.855387 225.674464 
L 262.317005 228.329768 
L 262.778624 229.575909 
L 263.240243 230.139233 
L 263.701861 230.327455 
L 264.16348 230.289093 
L 264.855908 229.971331 
L 265.779145 229.261786 
L 267.164001 227.877899 
L 269.472094 225.209154 
L 276.857993 216.495398 
L 279.627705 213.646281 
L 280.435537 212.878704 
L 280.435537 212.878704 
" style="fill:none;stroke:#d62728;stroke-linecap:square;"/>
   </g>
   <g id="line2d_8">
    <path clip-path="url(#p3759dd0c08)" d="M 165.146281 161.070248 
L 168.262207 161.070248 
L 168.723825 170.741018 
L 169.185444 175.546826 
L 169.647063 178.076396 
L 170.108681 179.410833 
L 170.5703 180.063651 
L 171.031919 180.304537 
L 171.493537 180.28662 
L 172.070561 180.03739 
L 172.993798 179.347268 
L 174.724868 177.68382 
L 175.186486 182.818345 
L 175.648105 185.311911 
L 176.109724 186.550649 
L 176.571342 187.117794 
L 177.032961 187.292751 
L 177.49458 187.223867 
L 178.187008 186.840788 
L 179.110245 186.035718 
L 180.72591 184.275304 
L 187.419381 176.693718 
L 187.534785 176.57511 
L 187.996404 181.986735 
L 188.458022 184.622865 
L 188.919641 185.94078 
L 189.38126 186.553998 
L 189.842878 186.756492 
L 190.304497 186.70431 
L 190.88152 186.414222 
L 191.804758 185.650347 
L 193.305018 184.050513 
L 195.151493 181.902053 
L 195.613111 185.917868 
L 196.07473 187.847605 
L 196.536349 188.778312 
L 196.997967 189.169176 
L 197.459586 189.241046 
L 198.036609 189.05664 
L 198.844442 188.496487 
L 199.998489 187.376345 
L 202.075772 184.989763 
L 207.846006 178.25205 
L 210.615717 175.390326 
L 213.270025 172.96769 
L 215.808927 170.954483 
L 218.34783 169.228619 
L 220.194304 168.141722 
L 220.655923 175.842144 
L 221.117542 179.642201 
L 221.57916 181.607087 
L 222.040779 182.602077 
L 222.502397 183.039622 
L 222.964016 183.137256 
L 223.541039 182.965477 
L 224.348872 182.409668 
L 225.618323 181.188975 
L 227.811012 178.812431 
L 228.27263 183.636845 
L 228.734249 185.974825 
L 229.195868 187.128488 
L 229.657486 187.646597 
L 230.119105 187.792434 
L 230.580724 187.705999 
L 231.273152 187.308625 
L 232.311794 186.379406 
L 234.042864 184.459228 
L 239.697692 177.934159 
L 240.159311 182.98463 
L 240.620929 185.437744 
L 241.082548 186.654852 
L 241.544166 187.209601 
L 242.005785 187.377127 
L 242.467404 187.303658 
L 243.159832 186.91667 
L 244.083069 186.109111 
L 245.698734 184.346748 
L 249.968707 179.37259 
L 250.430325 184.043875 
L 250.891944 186.305054 
L 251.353563 187.416792 
L 251.815181 187.910822 
L 252.2768 188.042451 
L 252.738419 187.947546 
L 253.430847 187.543437 
L 254.469488 186.610253 
L 256.200558 184.687197 
L 262.778624 177.149812 
L 265.548336 174.411453 
L 268.087238 172.208157 
L 268.664262 171.74896 
L 269.587499 187.501306 
L 270.049118 190.085931 
L 270.510736 191.298747 
L 270.972355 191.844559 
L 271.433974 192.022927 
L 272.010997 191.943012 
L 272.703425 191.581804 
L 273.742067 190.734304 
L 275.242327 189.180174 
L 277.896635 186.056322 
L 280.435537 182.97094 
L 280.435537 182.97094 
" style="fill:none;stroke:#d62728;stroke-linecap:square;"/>
   </g>
  </g>
 </g>
 <defs>
  <clipPath id="p3e3bb666ec">
   <rect height="123.545455" width="126.818182" x="7.2" y="7.2"/>
  </clipPath>
  <clipPath id="pa923362725">
   <rect height="123.545455" width="126.818182" x="159.381818" y="7.2"/>
  </clipPath>
  <clipPath id="p8092ac86a1">
   <rect height="123.545455" width="126.818182" x="7.2" y="155.454545"/>
  </clipPath>
  <clipPath id="p3759dd0c08">
   <rect height="123.545455" width="126.818182" x="159.381818" y="155.454545"/>
  </clipPath>
 </defs>
</svg>
